<mxfile host="app.diagrams.net" modified="2022-02-08T22:54:48.862Z" agent="5.0 (Macintosh; Intel Mac OS X 10_15_7) AppleWebKit/537.36 (KHTML, like Gecko) Chrome/97.0.4692.99 Safari/537.36" etag="l6syX9g7IMq5NVhbiU7t" version="16.5.4" type="github">
  <diagram id="iToCI4LLukcGqggkCm6J" name="Page-1">
    <mxGraphModel dx="1131" dy="613" grid="1" gridSize="10" guides="1" tooltips="1" connect="1" arrows="1" fold="1" page="1" pageScale="1" pageWidth="827" pageHeight="1169" math="0" shadow="0">
      <root>
        <mxCell id="0" />
        <mxCell id="1" parent="0" />
        <mxCell id="rEN_bg48IdsEwn1KUvEp-1" value="&lt;font style=&quot;font-size: 23px&quot;&gt;merchants.csv&lt;/font&gt;" style="rounded=0;whiteSpace=wrap;html=1;" vertex="1" parent="1">
          <mxGeometry x="230" y="110" width="360" height="50" as="geometry" />
        </mxCell>
        <mxCell id="rEN_bg48IdsEwn1KUvEp-14" style="edgeStyle=orthogonalEdgeStyle;rounded=0;orthogonalLoop=1;jettySize=auto;html=1;" edge="1" parent="1" source="rEN_bg48IdsEwn1KUvEp-2" target="rEN_bg48IdsEwn1KUvEp-1">
          <mxGeometry relative="1" as="geometry" />
        </mxCell>
        <mxCell id="rEN_bg48IdsEwn1KUvEp-17" value="&lt;font style=&quot;font-size: 17px&quot;&gt;left join on &#39;merchant_id&#39;&lt;/font&gt;" style="edgeLabel;html=1;align=center;verticalAlign=middle;resizable=0;points=[];" vertex="1" connectable="0" parent="rEN_bg48IdsEwn1KUvEp-14">
          <mxGeometry x="-0.107" relative="1" as="geometry">
            <mxPoint as="offset" />
          </mxGeometry>
        </mxCell>
        <mxCell id="rEN_bg48IdsEwn1KUvEp-24" style="edgeStyle=orthogonalEdgeStyle;rounded=0;orthogonalLoop=1;jettySize=auto;html=1;exitX=0.5;exitY=1;exitDx=0;exitDy=0;fontSize=17;" edge="1" parent="1" source="rEN_bg48IdsEwn1KUvEp-2">
          <mxGeometry relative="1" as="geometry">
            <mxPoint x="195" y="470" as="targetPoint" />
          </mxGeometry>
        </mxCell>
        <mxCell id="rEN_bg48IdsEwn1KUvEp-26" value="group by &#39;card_id&#39;" style="edgeLabel;html=1;align=center;verticalAlign=middle;resizable=0;points=[];fontSize=17;" vertex="1" connectable="0" parent="rEN_bg48IdsEwn1KUvEp-24">
          <mxGeometry x="-0.2308" y="-1" relative="1" as="geometry">
            <mxPoint as="offset" />
          </mxGeometry>
        </mxCell>
        <mxCell id="rEN_bg48IdsEwn1KUvEp-2" value="&lt;font style=&quot;font-size: 23px&quot;&gt;new_merchant&lt;br&gt;_transcations.csv&lt;/font&gt;" style="rounded=0;whiteSpace=wrap;html=1;" vertex="1" parent="1">
          <mxGeometry x="70" y="240" width="250" height="100" as="geometry" />
        </mxCell>
        <mxCell id="rEN_bg48IdsEwn1KUvEp-16" value="&lt;font style=&quot;font-size: 17px&quot;&gt;left join on &#39;merchant_id&#39;&lt;/font&gt;" style="edgeStyle=orthogonalEdgeStyle;rounded=0;orthogonalLoop=1;jettySize=auto;html=1;exitX=0.5;exitY=0;exitDx=0;exitDy=0;entryX=0.5;entryY=1;entryDx=0;entryDy=0;" edge="1" parent="1" source="rEN_bg48IdsEwn1KUvEp-3" target="rEN_bg48IdsEwn1KUvEp-1">
          <mxGeometry relative="1" as="geometry" />
        </mxCell>
        <mxCell id="rEN_bg48IdsEwn1KUvEp-27" style="edgeStyle=orthogonalEdgeStyle;rounded=0;orthogonalLoop=1;jettySize=auto;html=1;exitX=0.5;exitY=1;exitDx=0;exitDy=0;fontSize=17;" edge="1" parent="1" source="rEN_bg48IdsEwn1KUvEp-3">
          <mxGeometry relative="1" as="geometry">
            <mxPoint x="630" y="470" as="targetPoint" />
          </mxGeometry>
        </mxCell>
        <mxCell id="rEN_bg48IdsEwn1KUvEp-28" value="group by &#39;card_id&#39;" style="edgeLabel;html=1;align=center;verticalAlign=middle;resizable=0;points=[];fontSize=17;" vertex="1" connectable="0" parent="rEN_bg48IdsEwn1KUvEp-27">
          <mxGeometry x="-0.4571" relative="1" as="geometry">
            <mxPoint as="offset" />
          </mxGeometry>
        </mxCell>
        <mxCell id="rEN_bg48IdsEwn1KUvEp-3" value="&lt;font style=&quot;font-size: 23px&quot;&gt;historical_&lt;br&gt;transactions.csv&lt;/font&gt;" style="rounded=0;whiteSpace=wrap;html=1;" vertex="1" parent="1">
          <mxGeometry x="520" y="240" width="220" height="100" as="geometry" />
        </mxCell>
        <mxCell id="rEN_bg48IdsEwn1KUvEp-32" style="edgeStyle=orthogonalEdgeStyle;rounded=0;orthogonalLoop=1;jettySize=auto;html=1;exitX=0.5;exitY=1;exitDx=0;exitDy=0;entryX=0;entryY=0.5;entryDx=0;entryDy=0;fontSize=23;" edge="1" parent="1" source="rEN_bg48IdsEwn1KUvEp-25" target="rEN_bg48IdsEwn1KUvEp-31">
          <mxGeometry relative="1" as="geometry" />
        </mxCell>
        <mxCell id="rEN_bg48IdsEwn1KUvEp-25" value="&lt;font style=&quot;font-size: 23px&quot;&gt;Memory&lt;/font&gt;" style="rounded=1;whiteSpace=wrap;html=1;fontSize=17;" vertex="1" parent="1">
          <mxGeometry x="70" y="470" width="250" height="60" as="geometry" />
        </mxCell>
        <mxCell id="rEN_bg48IdsEwn1KUvEp-33" style="edgeStyle=orthogonalEdgeStyle;rounded=0;orthogonalLoop=1;jettySize=auto;html=1;exitX=0.5;exitY=1;exitDx=0;exitDy=0;entryX=1;entryY=0.5;entryDx=0;entryDy=0;fontSize=23;" edge="1" parent="1" source="rEN_bg48IdsEwn1KUvEp-29" target="rEN_bg48IdsEwn1KUvEp-31">
          <mxGeometry relative="1" as="geometry" />
        </mxCell>
        <mxCell id="rEN_bg48IdsEwn1KUvEp-29" value="&lt;font style=&quot;font-size: 23px&quot;&gt;Memory&lt;/font&gt;" style="rounded=1;whiteSpace=wrap;html=1;fontSize=17;" vertex="1" parent="1">
          <mxGeometry x="490" y="470" width="280" height="60" as="geometry" />
        </mxCell>
        <mxCell id="rEN_bg48IdsEwn1KUvEp-51" style="edgeStyle=orthogonalEdgeStyle;rounded=0;orthogonalLoop=1;jettySize=auto;html=1;fontSize=17;" edge="1" parent="1" source="rEN_bg48IdsEwn1KUvEp-31">
          <mxGeometry relative="1" as="geometry">
            <mxPoint x="410" y="780" as="targetPoint" />
          </mxGeometry>
        </mxCell>
        <mxCell id="rEN_bg48IdsEwn1KUvEp-52" value="agg()" style="edgeLabel;html=1;align=center;verticalAlign=middle;resizable=0;points=[];fontSize=17;" vertex="1" connectable="0" parent="rEN_bg48IdsEwn1KUvEp-51">
          <mxGeometry x="-0.3391" y="-1" relative="1" as="geometry">
            <mxPoint as="offset" />
          </mxGeometry>
        </mxCell>
        <mxCell id="rEN_bg48IdsEwn1KUvEp-31" value="&lt;font style=&quot;font-size: 23px&quot;&gt;Aggregator&lt;/font&gt;" style="rhombus;whiteSpace=wrap;html=1;fontSize=17;" vertex="1" parent="1">
          <mxGeometry x="275" y="590" width="270" height="75" as="geometry" />
        </mxCell>
        <mxCell id="rEN_bg48IdsEwn1KUvEp-56" style="edgeStyle=orthogonalEdgeStyle;rounded=0;orthogonalLoop=1;jettySize=auto;html=1;exitX=0.5;exitY=1;exitDx=0;exitDy=0;fontSize=17;" edge="1" parent="1" source="rEN_bg48IdsEwn1KUvEp-53">
          <mxGeometry relative="1" as="geometry">
            <mxPoint x="410" y="910" as="targetPoint" />
          </mxGeometry>
        </mxCell>
        <mxCell id="rEN_bg48IdsEwn1KUvEp-57" value="inner join on &#39;card_id&#39;" style="edgeLabel;html=1;align=center;verticalAlign=middle;resizable=0;points=[];fontSize=17;" vertex="1" connectable="0" parent="rEN_bg48IdsEwn1KUvEp-56">
          <mxGeometry x="-0.1714" y="2" relative="1" as="geometry">
            <mxPoint as="offset" />
          </mxGeometry>
        </mxCell>
        <mxCell id="rEN_bg48IdsEwn1KUvEp-53" value="&lt;font style=&quot;font-size: 24px&quot;&gt;Memory&lt;/font&gt;" style="rounded=1;whiteSpace=wrap;html=1;fontSize=17;" vertex="1" parent="1">
          <mxGeometry x="270" y="780" width="280" height="60" as="geometry" />
        </mxCell>
        <mxCell id="rEN_bg48IdsEwn1KUvEp-58" value="transactions_pre.csv" style="rounded=0;whiteSpace=wrap;html=1;fontSize=23;" vertex="1" parent="1">
          <mxGeometry x="250" y="910" width="320" height="60" as="geometry" />
        </mxCell>
      </root>
    </mxGraphModel>
  </diagram>
</mxfile>
